<?xml version="1.0" encoding="iso-8859-1"?>
<!-- Generator: Adobe Illustrator 16.0.0, SVG Export Plug-In . SVG Version: 6.00 Build 0)  -->
<!DOCTYPE svg PUBLIC "-//W3C//DTD SVG 1.1//EN" "http://www.w3.org/Graphics/SVG/1.1/DTD/svg11.dtd">
<svg version="1.1" id="Capa_1" xmlns="http://www.w3.org/2000/svg" xmlns:xlink="http://www.w3.org/1999/xlink" x="0px" y="0px"
	 width="27.333px" height="27.332px" viewBox="0 0 27.333 27.332" style="enable-background:new 0 0 27.333 27.332;"
	 xml:space="preserve">
<g>
	<path d="M25.833,0H1.5C0.672,0,0,0.671,0,1.5v24.332c0,0.828,0.672,1.5,1.5,1.5h24.333c0.828,0,1.5-0.672,1.5-1.5V1.5
		C27.333,0.672,26.661,0,25.833,0z M24.333,3v10.498l-4.998-4.999l-7,6.667l-5-3.334l-4.334,2.973V3H24.333z M5.084,7.832
		c0-1.427,1.156-2.583,2.582-2.583c1.428,0,2.584,1.156,2.584,2.583s-1.156,2.583-2.584,2.583C6.241,10.415,5.084,9.259,5.084,7.832
		z"/>
</g>
<g>
</g>
<g>
</g>
<g>
</g>
<g>
</g>
<g>
</g>
<g>
</g>
<g>
</g>
<g>
</g>
<g>
</g>
<g>
</g>
<g>
</g>
<g>
</g>
<g>
</g>
<g>
</g>
<g>
</g>
</svg>
